<svg xmlns="http://www.w3.org/2000/svg" viewBox="0 0 80 80" fill="none" role="img" aria-label="ENSURA">
  <path
    fill="#10263F"
    fill-rule="evenodd"
    d="M12 72V38A28 28 0 0 1 40 10H70V72ZM30 24H70V36H30ZM52 36H70V56H52ZM30 50H52V56H30Z"
  />
  <path fill="#C8A55A" d="M12 40C12 32.2 15.6 25.4 21 20.8 24.2 27.6 26 33.8 26 40V54H12V40Z" />
  <path
    fill="#21B6A8"
    d="M17.5 19.8C22.6 14.2 30.4 10.8 38.5 10.25 30.2 11.8 23.2 15.4 18.2 20.9 17.95 20.5 17.7 20.15 17.5 19.8Z"
  />
</svg>
